# xmcd
#
# Track frame offsets: 
#        150
#        19318
#        36064
#        54593
#        76719
#        95069
#        106883
#        123111
#        140912
#        156654
#        169617
#        184745
#        197552
#        212607
#        226310
#        242082
#        251301
#
# Disc length: 3571 seconds
#
# Revision: 2
# Processed by: cddbd v1.5.2PL0 Copyright (c) Steve Scherf et al.
# Submitted via: ExactAudioCopy v1.0b3
#
DISCID=e10df111
DTITLE=Necro - Brutality Part 1
DYEAR=2003
DGENRE=Hip Hop
TTITLE0=I'm Your Idol
TTITLE1=Goretex - DopeSick (feat. Necro)
TTITLE2=Ill Bill - Reign In Blood (feat. Necro)
TTITLE3=Mr. Hyde - Street Veteran (feat. Necro)
TTITLE4=Ill Bill - Swordfish
TTITLE5=Anguish and Agression
TTITLE6=Goretex - The Big Sleep
TTITLE7=Necro and Ill Bill - White Slavery
TTITLE8=Goretex - Scumbags (feat. Necro)
TTITLE9=Necro and Ill Bill - Frank Zito
TTITLE10=Ill Bill - Our Life (feat. Necro)
TTITLE11=Morbid Shit
TTITLE12=Every Second Someone Dies
TTITLE13=Fire
TTITLE14=Talking Shit
TTITLE15=Watch Ya Toes
TTITLE16=Goretex - The Big Sleep [remix]
EXTD=YEAR: 2003
EXTT0=
EXTT1=
EXTT2=
EXTT3=
EXTT4=
EXTT5=
EXTT6=
EXTT7=
EXTT8=
EXTT9=
EXTT10=
EXTT11=
EXTT12=
EXTT13=
EXTT14=
EXTT15=
EXTT16=
PLAYORDER=
